{
  "accessors": [
    {
      "bufferView": 2,
      "componentType": 5126,
      "count": 4916,
      "max": [
        3.8450238704681396,
        1.6164437532424927,
        0.6469389200210571
      ],
      "min": [
        -4.207412242889404,
        -1.7211112976074219,
        -0.9550976753234863
      ],
      "type": "VEC3"
    },
    {
      "bufferView": 2,
      "byteOffset": 58992,
      "componentType": 5126,
      "count": 4916,
      "max": [
        1.0,
        1.0,
        1.0
      ],
      "min": [
        -1.0,
        -1.0,
        -1.0
      ],
      "type": "VEC3"
    },
    {
      "bufferView": 1,
      "componentType": 5126,
      "count": 4916,
      "max": [
        0.9940752983093262,
        0.9156444072723389
      ],
      "min": [
        0.0,
        0.0
      ],
      "type": "VEC2"
    },
    {
      "bufferView": 0,
      "componentType": 5125,
      "count": 9327,
      "type": "SCALAR"
    },
    {
      "bufferView": 2,
      "byteOffset": 117984,
      "componentType": 5126,
      "count": 2576,
      "max": [
        -0.24569179117679596,
        1.5900044441223145,
        0.5783133506774902
      ],
      "min": [
        -2.299689292907715,
        -1.694724678993225,
        0.43032991886138916
      ],
      "type": "VEC3"
    },
    {
      "bufferView": 2,
      "byteOffset": 148896,
      "componentType": 5126,
      "count": 2576,
      "max": [
        0.9994950294494629,
        1.0,
        0.9999991655349731
      ],
      "min": [
        -0.9999960064888,
        -1.0,
        -0.9999386668205261
      ],
      "type": "VEC3"
    },
    {
      "bufferView": 1,
      "byteOffset": 39328,
      "componentType": 5126,
      "count": 2576,
      "max": [
        0.7992163896560669,
        0.8002949357032776
      ],
      "min": [
        0.4548918306827545,
        0.3877526819705963
      ],
      "type": "VEC2"
    },
    {
      "bufferView": 0,
      "byteOffset": 37308,
      "componentType": 5125,
      "count": 4677,
      "type": "SCALAR"
    },
    {
      "bufferView": 2,
      "byteOffset": 179808,
      "componentType": 5126,
      "count": 597,
      "max": [
        0.15835945308208466,
        1.6878886222839355,
        0.027670662850141525
      ],
      "min": [
        -0.15835945308208466,
        -3.2310893535614014,
        -0.027670666575431824
      ],
      "type": "VEC3"
    },
    {
      "bufferView": 2,
      "byteOffset": 186972,
      "componentType": 5126,
      "count": 597,
      "max": [
        1.0,
        1.0,
        1.0
      ],
      "min": [
        -1.0,
        -1.0,
        -1.0
      ],
      "type": "VEC3"
    },
    {
      "bufferView": 1,
      "byteOffset": 59936,
      "componentType": 5126,
      "count": 597,
      "max": [
        0.9998692274093628,
        0.9663349986076355
      ],
      "min": [
        0.6005710363388062,
        0.4243028163909912
      ],
      "type": "VEC2"
    },
    {
      "bufferView": 0,
      "byteOffset": 56016,
      "componentType": 5125,
      "count": 1335,
      "type": "SCALAR"
    },
    {
      "bufferView": 2,
      "byteOffset": 194136,
      "componentType": 5126,
      "count": 599,
      "max": [
        0.15835945308208466,
        1.6878886222839355,
        0.027670662850141525
      ],
      "min": [
        -0.15835945308208466,
        -3.2310893535614014,
        -0.027670666575431824
      ],
      "type": "VEC3"
    },
    {
      "bufferView": 2,
      "byteOffset": 201324,
      "componentType": 5126,
      "count": 599,
      "max": [
        1.0,
        1.0,
        1.0
      ],
      "min": [
        -1.0,
        -1.0,
        -1.0
      ],
      "type": "VEC3"
    },
    {
      "bufferView": 1,
      "byteOffset": 64712,
      "componentType": 5126,
      "count": 599,
      "max": [
        0.9986961483955383,
        0.9663333296775818
      ],
      "min": [
        0.5962978005409241,
        6.319672252175224e-08
      ],
      "type": "VEC2"
    },
    {
      "bufferView": 0,
      "byteOffset": 61356,
      "componentType": 5125,
      "count": 1335,
      "type": "SCALAR"
    },
    {
      "bufferView": 2,
      "byteOffset": 208512,
      "componentType": 5126,
      "count": 602,
      "max": [
        0.15835945308208466,
        1.6878886222839355,
        0.027670662850141525
      ],
      "min": [
        -0.15835945308208466,
        -3.2310893535614014,
        -0.027670666575431824
      ],
      "type": "VEC3"
    },
    {
      "bufferView": 2,
      "byteOffset": 215736,
      "componentType": 5126,
      "count": 602,
      "max": [
        1.0,
        1.0,
        1.0
      ],
      "min": [
        -1.0,
        -1.0,
        -1.0
      ],
      "type": "VEC3"
    },
    {
      "bufferView": 1,
      "byteOffset": 69504,
      "componentType": 5126,
      "count": 602,
      "max": [
        0.9975459575653076,
        0.9663349986076355
      ],
      "min": [
        0.5941612124443054,
        1.7971208876588207e-07
      ],
      "type": "VEC2"
    },
    {
      "bufferView": 0,
      "byteOffset": 66696,
      "componentType": 5125,
      "count": 1335,
      "type": "SCALAR"
    },
    {
      "bufferView": 2,
      "byteOffset": 222960,
      "componentType": 5126,
      "count": 608,
      "max": [
        0.15835945308208466,
        1.6878886222839355,
        0.027670662850141525
      ],
      "min": [
        -0.15835945308208466,
        -3.2310893535614014,
        -0.027670666575431824
      ],
      "type": "VEC3"
    },
    {
      "bufferView": 2,
      "byteOffset": 230256,
      "componentType": 5126,
      "count": 608,
      "max": [
        1.0,
        1.0,
        1.0
      ],
      "min": [
        -1.0,
        -1.0,
        -1.0
      ],
      "type": "VEC3"
    },
    {
      "bufferView": 1,
      "byteOffset": 74320,
      "componentType": 5126,
      "count": 608,
      "max": [
        0.99749755859375,
        0.9663362503051758
      ],
      "min": [
        0.5984344482421875,
        0.0
      ],
      "type": "VEC2"
    },
    {
      "bufferView": 0,
      "byteOffset": 72036,
      "componentType": 5125,
      "count": 1335,
      "type": "SCALAR"
    }
  ],
  "asset": {
    "extras": {
      "author": "littleting0119 (https://sketchfab.com/littleting0119)",
      "license": "CC-BY-4.0 (http://creativecommons.org/licenses/by/4.0/)",
      "source": "https://sketchfab.com/3d-models/canoe-3a695cf8eb1948debddd803ec25f869e",
      "title": "Canoe"
    },
    "generator": "Sketchfab-14.49.0",
    "version": "2.0"
  },
  "bufferViews": [
    {
      "buffer": 0,
      "byteLength": 77376,
      "name": "floatBufferViews",
      "target": 34963
    },
    {
      "buffer": 0,
      "byteLength": 79184,
      "byteOffset": 77376,
      "byteStride": 8,
      "name": "floatBufferViews",
      "target": 34962
    },
    {
      "buffer": 0,
      "byteLength": 237552,
      "byteOffset": 156560,
      "byteStride": 12,
      "name": "floatBufferViews",
      "target": 34962
    }
  ],
  "buffers": [
    {
      "byteLength": 394112,
      "uri": "scene.bin"
    }
  ],
  "materials": [
    {
      "doubleSided": true,
      "name": "wood_planks",
      "pbrMetallicRoughness": {
        "baseColorFactor": [
          0.8373390532284241,
          0.3414904947817278,
          0.09441768248757768,
          1.0
        ],
        "metallicFactor": 0.0,
        "roughnessFactor": 0.8001885174351583
      }
    },
    {
      "doubleSided": true,
      "name": "barbed_wire",
      "pbrMetallicRoughness": {
        "baseColorFactor": [
          0.0495574,
          0.0495574,
          0.0495574,
          1.0
        ],
        "roughnessFactor": 0.9878609657020997
      }
    }
  ],
  "meshes": [
    {
      "name": "boat_wood planks_0",
      "primitives": [
        {
          "attributes": {
            "NORMAL": 1,
            "POSITION": 0,
            "TEXCOORD_0": 2
          },
          "indices": 3,
          "material": 0,
          "mode": 4
        }
      ]
    },
    {
      "name": "boat_barbed wire_0",
      "primitives": [
        {
          "attributes": {
            "NORMAL": 5,
            "POSITION": 4,
            "TEXCOORD_0": 6
          },
          "indices": 7,
          "material": 1,
          "mode": 4
        }
      ]
    },
    {
      "name": "paddle1_wood planks_0",
      "primitives": [
        {
          "attributes": {
            "NORMAL": 9,
            "POSITION": 8,
            "TEXCOORD_0": 10
          },
          "indices": 11,
          "material": 0,
          "mode": 4
        }
      ]
    },
    {
      "name": "paddle2_wood planks_0",
      "primitives": [
        {
          "attributes": {
            "NORMAL": 13,
            "POSITION": 12,
            "TEXCOORD_0": 14
          },
          "indices": 15,
          "material": 0,
          "mode": 4
        }
      ]
    },
    {
      "name": "paddle3_wood planks_0",
      "primitives": [
        {
          "attributes": {
            "NORMAL": 17,
            "POSITION": 16,
            "TEXCOORD_0": 18
          },
          "indices": 19,
          "material": 0,
          "mode": 4
        }
      ]
    },
    {
      "name": "paddle4_wood planks_0",
      "primitives": [
        {
          "attributes": {
            "NORMAL": 21,
            "POSITION": 20,
            "TEXCOORD_0": 22
          },
          "indices": 23,
          "material": 0,
          "mode": 4
        }
      ]
    }
  ],
  "nodes": [
    {
      "children": [
        1
      ],
      "matrix": [
        -0.99994295835495,
        -8.832909502589618e-16,
        0.010682657361030579,
        0.0,
        -0.010682657361030579,
        -1.3843164939048743e-15,
        -0.99994295835495,
        0.0,
        8.980286717228639e-16,
        -1.0,
        1.3748016007547994e-15,
        0.0,
        0.0,
        0.0,
        0.0,
        1.0
      ],
      "name": "Sketchfab_model"
    },
    {
      "children": [
        2
      ],
      "matrix": [
        0.009999999776482582,
        0.0,
        0.0,
        0.0,
        0.0,
        -0.009999999776482582,
        0.0,
        0.0,
        0.0,
        0.0,
        -0.009999999776482582,
        0.0,
        0.0,
        0.0,
        0.0,
        1.0
      ],
      "name": "d70e1383296744fc86a3a83af03e7f97.fbx"
    },
    {
      "children": [
        3,
        6,
        8,
        10,
        12
      ],
      "name": "RootNode"
    },
    {
      "children": [
        4,
        5
      ],
      "matrix": [
        -99.99999999999964,
        -8.742277980456493e-06,
        0.0,
        0.0,
        8.742277980456493e-06,
        -99.99999999999964,
        0.0,
        0.0,
        0.0,
        0.0,
        100.0,
        0.0,
        0.0,
        0.0,
        100.54488372802734,
        1.0
      ],
      "name": "boat"
    },
    {
      "mesh": 0,
      "name": "boat_wood planks_0"
    },
    {
      "mesh": 1,
      "name": "boat_barbed wire_0"
    },
    {
      "children": [
        7
      ],
      "matrix": [
        -95.05265670725387,
        31.064303098799616,
        6.643205471537473e-07,
        0.0,
        -30.38277762241977,
        -92.96727938208333,
        20.831989541094,
        0.0,
        6.471313483878452,
        19.801360812672023,
        97.80607451359936,
        0.0,
        38.83904266357422,
        152.27732849121094,
        151.22174072265625,
        1.0
      ],
      "name": "paddle1"
    },
    {
      "mesh": 2,
      "name": "paddle1_wood planks_0"
    },
    {
      "children": [
        9
      ],
      "matrix": [
        92.83002012900764,
        37.18313914893666,
        1.8804883318832743e-06,
        0.0,
        -36.55410315942038,
        91.25959172116623,
        18.316276558718663,
        0.0,
        6.810564883606493,
        -17.003003903738982,
        98.30826040682248,
        0.0,
        38.83904266357422,
        -133.01629638671875,
        151.22174072265625,
        1.0
      ],
      "name": "paddle2"
    },
    {
      "mesh": 3,
      "name": "paddle2_wood planks_0"
    },
    {
      "children": [
        11
      ],
      "matrix": [
        -95.05265670725387,
        31.064303098799616,
        6.643205471537473e-07,
        0.0,
        -30.38277762241977,
        -92.96727938208333,
        20.831989541094,
        0.0,
        6.471313483878452,
        19.801360812672023,
        97.80607451359936,
        0.0,
        211.87344360351563,
        152.27732849121094,
        149.72879028320313,
        1.0
      ],
      "name": "paddle3"
    },
    {
      "mesh": 4,
      "name": "paddle3_wood planks_0"
    },
    {
      "children": [
        13
      ],
      "matrix": [
        92.83001857288207,
        37.15139765748375,
        -1.536156884902324,
        0.0,
        -36.55410399889064,
        91.93837512654586,
        14.530404671887776,
        0.0,
        6.810566100268384,
        -12.927048970335033,
        98.92677124233656,
        0.0,
        211.87344360351563,
        -133.01629638671875,
        150.17892456054688,
        1.0
      ],
      "name": "paddle4"
    },
    {
      "mesh": 5,
      "name": "paddle4_wood planks_0"
    }
  ],
  "scene": 0,
  "scenes": [
    {
      "name": "Sketchfab_Scene",
      "nodes": [
        0
      ]
    }
  ]
}
